<?xml version="1.0" standalone="no"?>
<!DOCTYPE svg PUBLIC "-//W3C//DTD SVG 20010904//EN"
 "http://www.w3.org/TR/2001/REC-SVG-20010904/DTD/svg10.dtd">
<svg version="1.0" xmlns="http://www.w3.org/2000/svg"
 width="512.000000pt" height="512.000000pt" viewBox="0 0 512.000000 512.000000"
 preserveAspectRatio="xMidYMid meet">
<metadata>
Created by potrace 1.11, written by Peter Selinger 2001-2013
</metadata>
<g transform="translate(0.000000,512.000000) scale(0.100000,-0.100000)"
fill="#000000" stroke="none">
<path d="M4508 4216 c-13 -13 -74 -145 -137 -293 -62 -147 -123 -290 -136
-318 -12 -27 -64 -148 -115 -267 l-92 -218 -629 0 c-346 0 -629 2 -629 6 0 6
21 52 95 209 30 64 55 118 55 120 0 2 27 60 60 130 33 70 60 128 60 130 0 3
23 53 127 274 27 58 33 82 28 108 -10 56 -38 63 -244 63 l-180 0 -228 -197
c-125 -108 -248 -215 -273 -237 -25 -23 -59 -52 -75 -66 -50 -42 -399 -344
-411 -355 -6 -5 -37 -32 -70 -60 -32 -27 -77 -66 -99 -87 l-40 -36 -165 -6
c-186 -7 -217 -10 -350 -32 -387 -63 -679 -207 -841 -414 -89 -115 -79 -147
78 -258 61 -43 238 -130 337 -167 118 -44 286 -88 411 -110 50 -8 100 -17 110
-19 11 -2 49 -7 85 -11 36 -4 79 -9 95 -11 17 -2 129 -6 250 -10 121 -3 222
-7 225 -10 3 -2 218 -217 478 -477 l472 -472 193 -3 c177 -2 194 -1 217 17 19
15 24 29 24 58 0 25 -60 187 -182 490 -100 249 -182 457 -182 461 0 5 6 9 13
9 16 0 192 14 237 18 19 2 73 6 120 9 47 4 101 9 120 11 19 2 71 7 115 10 44
3 100 7 125 10 25 2 72 6 105 10 33 3 85 7 115 10 72 6 151 13 226 20 l60 6
55 -63 c29 -35 58 -68 64 -74 5 -6 35 -39 65 -74 30 -35 67 -78 82 -95 l26
-30 202 0 201 0 19 25 c11 14 20 35 20 46 0 12 -29 79 -64 150 -87 177 -86
173 -38 172 42 0 88 24 96 50 3 10 8 46 11 82 3 36 8 85 10 110 2 25 7 72 10
105 3 33 8 85 10 115 3 30 8 82 10 115 3 33 7 83 10 110 3 28 7 70 10 95 3 25
7 79 10 120 4 41 8 91 10 110 2 19 6 69 10 110 3 41 7 91 10 110 2 19 7 69 10
110 4 41 8 91 10 110 2 19 7 71 11 115 3 44 8 87 9 95 2 9 6 58 10 110 6 87 5
98 -13 120 -20 25 -21 25 -216 28 l-196 3 -22 -25z"/>
</g>
</svg>
